<?xml version="1.0" standalone="no"?>
<!DOCTYPE svg PUBLIC "-//W3C//DTD SVG 20010904//EN"
 "http://www.w3.org/TR/2001/REC-SVG-20010904/DTD/svg10.dtd">
<svg version="1.0" xmlns="http://www.w3.org/2000/svg"
 width="32.000000pt" height="32.000000pt" viewBox="0 0 32.000000 32.000000"
 preserveAspectRatio="xMidYMid meet">

<g transform="translate(0.000000,32.000000) scale(0.100000,-0.100000)"
fill="#000000" stroke="none">
<path d="M72 297 c-20 -21 -22 -34 -22 -138 0 -108 2 -117 23 -137 19 -18 35
-22 88 -22 56 0 69 4 87 23 20 21 22 34 22 138 0 108 -2 117 -23 137 -19 18
-35 22 -88 22 -56 0 -69 -4 -87 -23z m128 -7 c0 -5 -18 -10 -40 -10 -22 0 -40
5 -40 10 0 6 18 10 40 10 22 0 40 -4 40 -10z m-100 -16 c0 -8 -5 -12 -10 -9
-6 4 -8 11 -5 16 9 14 15 11 15 -7z m135 7 c3 -5 1 -12 -5 -16 -5 -3 -10 1
-10 9 0 18 6 21 15 7z m-30 -121 l0 -95 -45 0 -45 0 -3 84 c-4 109 -2 113 50
109 l43 -3 0 -95z m-115 0 c0 -53 -4 -90 -10 -90 -6 0 -10 37 -10 90 0 53 4
90 10 90 6 0 10 -37 10 -90z m160 0 c0 -53 -4 -90 -10 -90 -6 0 -10 37 -10 90
0 53 4 90 10 90 6 0 10 -37 10 -90z m-150 -116 c0 -8 -5 -12 -10 -9 -6 4 -8
11 -5 16 9 14 15 11 15 -7z m135 7 c3 -5 1 -12 -5 -16 -5 -3 -10 1 -10 9 0 18
6 21 15 7z m-35 -21 c0 -5 -18 -10 -40 -10 -22 0 -40 5 -40 10 0 6 18 10 40
10 22 0 40 -4 40 -10z"/>
</g>
</svg>
